<?xml version="1.0" encoding="UTF-8"?>
<svg version="1.1" xmlns="http://www.w3.org/2000/svg" width="96" height="94">
<path d="M0 0 C3.5625 0.3125 3.5625 0.3125 5.5 1.4375 C7.00734863 4.097527 6.76236253 6.31456205 6.5625 9.3125 C7.34625 9.35375 8.13 9.395 8.9375 9.4375 C15.18112954 10.94458299 20.26589238 14.78142825 25.5625 18.3125 C26.0575 17.8175 26.0575 17.8175 26.5625 17.3125 C32.84638747 16.73065857 32.84638747 16.73065857 35.5625 18.9375 C36.93767651 22.20354422 36.72037855 23.98359917 35.5625 27.3125 C33 28.6875 33 28.6875 30.5625 29.3125 C31.0575 30.5190625 31.0575 30.5190625 31.5625 31.75 C33.49199801 38.62383667 32.83927182 44.62448279 30.5625 51.3125 C31.18125 51.415625 31.8 51.51875 32.4375 51.625 C34.5625 52.3125 34.5625 52.3125 36.5625 55.3125 C36.11805556 60.75694444 36.11805556 60.75694444 33.5625 63.3125 C29.22606399 63.62787716 27.23596771 63.76147847 23.5625 61.3125 C23.5625 61.9725 23.5625 62.6325 23.5625 63.3125 C22.9025 63.3125 22.2425 63.3125 21.5625 63.3125 C21.5625 63.9725 21.5625 64.6325 21.5625 65.3125 C12.33698747 70.86830866 12.33698747 70.86830866 6.5625 71.3125 C6.624375 72.240625 6.68625 73.16875 6.75 74.125 C6.5625 77.3125 6.5625 77.3125 5.5 79.1875 C2.49517901 80.93223477 -0.04560131 80.62085443 -3.4375 80.3125 C-5.4375 78.3125 -5.4375 78.3125 -5.5625 74.6875 C-5.52125 73.57375 -5.48 72.46 -5.4375 71.3125 C-6.530625 71.209375 -7.62375 71.10625 -8.75 71 C-12.56036654 70.28959268 -13.05487092 70.02003305 -15.4375 67.3125 C-16.2625 66.9825 -17.0875 66.6525 -17.9375 66.3125 C-20.4375 65.3125 -20.4375 65.3125 -21.8125 63.71875 C-23.35114903 62.07211841 -23.35114903 62.07211841 -25.59375 62.34375 C-26.3671875 62.4984375 -27.140625 62.653125 -27.9375 62.8125 C-30.28125 63.28125 -30.28125 63.28125 -32.4375 63.3125 C-34.1953125 62.03125 -34.1953125 62.03125 -35.4375 60.3125 C-35.84368007 57.06305942 -36.03376824 55.16431176 -34.125 52.4375 C-32.4375 51.3125 -32.4375 51.3125 -29.4375 51.3125 C-29.92863281 50.5390625 -29.92863281 50.5390625 -30.4296875 49.75 C-31.77291357 46.50126717 -31.62932209 43.81694718 -31.5625 40.3125 C-31.54445313 39.095625 -31.52640625 37.87875 -31.5078125 36.625 C-31.47300781 34.9853125 -31.47300781 34.9853125 -31.4375 33.3125 C-31.4375 31.9925 -31.4375 30.6725 -31.4375 29.3125 C-32.0975 28.85875 -32.7575 28.405 -33.4375 27.9375 C-35.4375 26.3125 -35.4375 26.3125 -35.8125 23.3125 C-35.4375 20.3125 -35.4375 20.3125 -33.4375 17.3125 C-31.4921875 17.01953125 -31.4921875 17.01953125 -29.3125 17.125 C-28.03375 17.186875 -26.755 17.24875 -25.4375 17.3125 C-25.4375 17.9725 -25.4375 18.6325 -25.4375 19.3125 C-24.97859375 18.879375 -24.5196875 18.44625 -24.046875 18 C-23.43328125 17.443125 -22.8196875 16.88625 -22.1875 16.3125 C-21.58421875 15.755625 -20.9809375 15.19875 -20.359375 14.625 C-18.4375 13.3125 -18.4375 13.3125 -14.4375 13.3125 C-14.4375 12.6525 -14.4375 11.9925 -14.4375 11.3125 C-11.4675 10.6525 -8.4975 9.9925 -5.4375 9.3125 C-5.47875 8.19875 -5.52 7.085 -5.5625 5.9375 C-5.39580993 1.10348793 -4.80915207 0.43719564 0 0 Z M-0.4375 22.3125 C-2.69635324 25.56647508 -2.69635324 25.56647508 -3.4375 29.3125 C-4.4275 29.3125 -5.4175 29.3125 -6.4375 29.3125 C-7.0975 27.6625 -7.7575 26.0125 -8.4375 24.3125 C-12.94453494 28.19627749 -12.94453494 28.19627749 -15.4375 33.3125 C-14.33793831 35.86525125 -12.97036056 37.96812502 -11.4375 40.3125 C-13.4175 40.3125 -15.3975 40.3125 -17.4375 40.3125 C-16.93037967 44.03138239 -16.32141785 47.04704239 -14.4375 50.3125 C-10.4775 49.8175 -10.4775 49.8175 -6.4375 49.3125 C-7.0975 51.6225 -7.7575 53.9325 -8.4375 56.3125 C-5.1375 56.6425 -1.8375 56.9725 1.5625 57.3125 C3.8398501 54.49740007 3.8398501 54.49740007 3.5625 51.3125 C6.03050047 52.46423355 7.61033565 53.36033565 9.5625 55.3125 C12.32377543 53.40084778 14.23686933 52.04038031 15.625 48.9375 C15.53589835 45.19523054 13.79471926 43.22114933 11.5625 40.3125 C13.8725 40.3125 16.1825 40.3125 18.5625 40.3125 C18.16654157 38.82765588 17.74499294 37.3496169 17.3125 35.875 C16.96445313 34.63943359 16.96445313 34.63943359 16.609375 33.37890625 C15.76028958 31.14944344 15.76028958 31.14944344 13.625 30.5 C11.10293829 30.27072166 9.00867392 30.70095652 6.5625 31.3125 C7.5525 29.0025 8.5425 26.6925 9.5625 24.3125 C6.2625 23.6525 2.9625 22.9925 -0.4375 22.3125 Z " fill="#F6A74C" transform="translate(47.4375,7.6875)"/>
<path d="M0 0 C0.66 0 1.32 0 2 0 C3.32421875 1.609375 3.32421875 1.609375 4.6875 3.75 C5.14511719 4.44609375 5.60273437 5.1421875 6.07421875 5.859375 C7 8 7 8 6.75 10.11328125 C6 12 6 12 4.3125 14.4375 C2.66234714 16.93554376 2.66234714 16.93554376 3.75 19.5625 C4.1625 20.366875 4.575 21.17125 5 22 C5.35858516 23.32676508 5.7018576 24.65835921 6 26 C4.02 26 2.04 26 0 26 C0.99 29.3 1.98 32.6 3 36 C5.64 35.67 8.28 35.34 11 35 C10.125 39.75 10.125 39.75 9 42 C12.3 42 15.6 42 19 42 C19.495 41.01 19.495 41.01 20 40 C22.29296875 39.703125 22.29296875 39.703125 25 40 C26.80078125 42.046875 26.80078125 42.046875 28.3125 44.75 C28.82425781 45.63171875 29.33601563 46.5134375 29.86328125 47.421875 C31 50 31 50 31 54 C26.92857143 57 26.92857143 57 24 57 C24.061875 57.928125 24.12375 58.85625 24.1875 59.8125 C24 63 24 63 22.9375 64.875 C19.93267901 66.61973477 17.39189869 66.30835443 14 66 C12 64 12 64 11.875 60.375 C11.91625 59.26125 11.9575 58.1475 12 57 C10.906875 56.896875 9.81375 56.79375 8.6875 56.6875 C4.87713346 55.97709268 4.38262908 55.70753305 2 53 C1.175 52.67 0.35 52.34 -0.5 52 C-3 51 -3 51 -4.375 49.40625 C-5.91364903 47.75961841 -5.91364903 47.75961841 -8.15625 48.03125 C-8.9296875 48.1859375 -9.703125 48.340625 -10.5 48.5 C-12.84375 48.96875 -12.84375 48.96875 -15 49 C-16.7578125 47.71875 -16.7578125 47.71875 -18 46 C-18.40618007 42.75055942 -18.59626824 40.85181176 -16.6875 38.125 C-15 37 -15 37 -12 37 C-12.49113281 36.2265625 -12.49113281 36.2265625 -12.9921875 35.4375 C-14.33541357 32.18876717 -14.19182209 29.50444718 -14.125 26 C-14.10695313 24.783125 -14.08890625 23.56625 -14.0703125 22.3125 C-14.03550781 20.6728125 -14.03550781 20.6728125 -14 19 C-14 17.68 -14 16.36 -14 15 C-14.66 14.54625 -15.32 14.0925 -16 13.625 C-18 12 -18 12 -18.375 9 C-18 6 -18 6 -16 3 C-14.0546875 2.70703125 -14.0546875 2.70703125 -11.875 2.8125 C-10.59625 2.874375 -9.3175 2.93625 -8 3 C-8 3.99 -8 4.98 -8 6 C-5.5267341 4.59625449 -3.33060832 3.33060832 -1.3125 1.3125 C-0.879375 0.879375 -0.44625 0.44625 0 0 Z " fill="#4BC3E7" transform="translate(30,22)"/>
<path d="M0 0 C3.5625 0.3125 3.5625 0.3125 5.5 1.4375 C7.00734863 4.097527 6.76236253 6.31456205 6.5625 9.3125 C7.42875 9.415625 8.295 9.51875 9.1875 9.625 C12.72933123 10.34648414 15.40562042 11.58373261 18.5625 13.3125 C17.62942579 14.75287669 16.69084923 16.18968985 15.75 17.625 C15.22792969 18.42550781 14.70585938 19.22601562 14.16796875 20.05078125 C11.32130813 24.06104037 11.32130813 24.06104037 9.5625 25.3125 C7.08203125 25.16796875 7.08203125 25.16796875 4.375 24.5 C3.47394531 24.28730469 2.57289062 24.07460938 1.64453125 23.85546875 C0.95746094 23.67628906 0.27039063 23.49710938 -0.4375 23.3125 C-1.4275 25.2925 -2.4175 27.2725 -3.4375 29.3125 C-4.4275 29.3125 -5.4175 29.3125 -6.4375 29.3125 C-7.0975 27.9925 -7.7575 26.6725 -8.4375 25.3125 C-10.4175 26.3025 -10.4175 26.3025 -12.4375 27.3125 C-11.7775 25.9925 -11.1175 24.6725 -10.4375 23.3125 C-10.7984375 22.83039062 -11.159375 22.34828125 -11.53125 21.8515625 C-11.9953125 21.21992188 -12.459375 20.58828125 -12.9375 19.9375 C-13.4015625 19.31101562 -13.865625 18.68453125 -14.34375 18.0390625 C-15.4375 16.3125 -15.4375 16.3125 -15.4375 14.3125 C-15.90800781 14.75722656 -16.37851562 15.20195312 -16.86328125 15.66015625 C-17.79720703 16.50900391 -17.79720703 16.50900391 -18.75 17.375 C-19.36488281 17.94347656 -19.97976562 18.51195313 -20.61328125 19.09765625 C-21.21527344 19.49855469 -21.81726563 19.89945313 -22.4375 20.3125 C-23.4275 19.9825 -24.4175 19.6525 -25.4375 19.3125 C-24.36531799 18.30055294 -23.27923622 17.30331943 -22.1875 16.3125 C-21.58421875 15.755625 -20.9809375 15.19875 -20.359375 14.625 C-18.4375 13.3125 -18.4375 13.3125 -14.4375 13.3125 C-14.4375 12.6525 -14.4375 11.9925 -14.4375 11.3125 C-11.4675 10.6525 -8.4975 9.9925 -5.4375 9.3125 C-5.47875 8.19875 -5.52 7.085 -5.5625 5.9375 C-5.39580993 1.10348793 -4.80915207 0.43719564 0 0 Z " fill="#F46ED3" transform="translate(47.4375,7.6875)"/>
<path d="M0 0 C1.32 0 2.64 0 4 0 C5.703125 2.046875 5.703125 2.046875 7.25 4.75 C7.77078125 5.63171875 8.2915625 6.5134375 8.828125 7.421875 C10 10 10 10 10 14 C5.92857143 17 5.92857143 17 3 17 C3.061875 17.928125 3.12375 18.85625 3.1875 19.8125 C3 23 3 23 1.9375 24.875 C-1.06732099 26.61973477 -3.60810131 26.30835443 -7 26 C-9 24 -9 24 -9.125 20.375 C-9.08375 19.26125 -9.0425 18.1475 -9 17 C-11.31 16.67 -13.62 16.34 -16 16 C-17.06267424 13.3841865 -17.1827998 11.58517569 -16.33984375 8.88671875 C-15.11254982 6.41013637 -14.10973864 4.80270807 -12 3 C-8.24573344 2.31022592 -4.77307112 2.52423622 -1 3 C-0.67 2.01 -0.34 1.02 0 0 Z " fill="#42B888" transform="translate(51,62)"/>
<path d="M0 0 C0.66 0 1.32 0 2 0 C3.32421875 1.609375 3.32421875 1.609375 4.6875 3.75 C5.14511719 4.44609375 5.60273437 5.1421875 6.07421875 5.859375 C7 8 7 8 6.75 10.11328125 C6 12 6 12 4.3125 14.4375 C2.64933633 16.94923069 2.64933633 16.94923069 3.8125 19.625 C4.204375 20.40875 4.59625 21.1925 5 22 C5 22.99 5 23.98 5 25 C-0.61 25 -6.22 25 -12 25 C-13.13757948 20.44968209 -12.4283779 18.36915594 -11 14 C-11.78375 14.04125 -12.5675 14.0825 -13.375 14.125 C-16 14 -16 14 -18 12 C-18.34490322 7.94738713 -18.30163882 6.45245824 -16 3 C-14.0546875 2.70703125 -14.0546875 2.70703125 -11.875 2.8125 C-10.59625 2.874375 -9.3175 2.93625 -8 3 C-8 3.99 -8 4.98 -8 6 C-5.5267341 4.59625449 -3.33060832 3.33060832 -1.3125 1.3125 C-0.879375 0.879375 -0.44625 0.44625 0 0 Z " fill="#8451D6" transform="translate(30,22)"/>
<path d="M0 0 C0.99 0.66 1.98 1.32 3 2 C5.23166253 1.95084802 5.23166253 1.95084802 7.5625 1.5 C9.94140625 1.09375 9.94140625 1.09375 12 1 C14 3 14 3 14.125 6.125 C14.08375 7.07375 14.0425 8.0225 14 9 C13.01 8.67 12.02 8.34 11 8 C10.04738513 12.76307437 9.91666643 17.1666528 10 22 C6.37 22 2.74 22 -1 22 C-2.23697917 19.42838542 -3.47395833 16.85677083 -4.7109375 14.28515625 C-5.79199162 11.87096198 -5.79199162 11.87096198 -8 11 C-8.625 8.9375 -8.625 8.9375 -9 7 C-7 6 -5 5 -3 4 C-3 4.99 -3 5.98 -3 7 C-2.67 5.68 -2.34 4.36 -2 3 C-1.34 3 -0.68 3 0 3 C0 2.01 0 1.02 0 0 Z " fill="#EC2D25" transform="translate(68,25)"/>
<path d="M0 0 C1.670625 0.061875 1.670625 0.061875 3.375 0.125 C3.375 0.455 3.375 0.785 3.375 1.125 C1.065 1.785 -1.245 2.445 -3.625 3.125 C-3.955 5.435 -4.285 7.745 -4.625 10.125 C-6.605 10.785 -8.585 11.445 -10.625 12.125 C-8.57266315 14.3727975 -7.61832739 15.1272242 -4.625 16.125 C-4.955 17.445 -5.285 18.765 -5.625 20.125 C-6.285 20.125 -6.945 20.125 -7.625 20.125 C-6.965 21.445 -6.305 22.765 -5.625 24.125 C-4.965 22.805 -4.305 21.485 -3.625 20.125 C0.665 20.125 4.955 20.125 9.375 20.125 C9.375 19.465 9.375 18.805 9.375 18.125 C10.365 17.465 11.355 16.805 12.375 16.125 C12.62530977 13.54119823 12.62530977 13.54119823 12.375 11.125 C14.355 11.785 16.335 12.445 18.375 13.125 C17.44192579 14.56537669 16.50334923 16.00218985 15.5625 17.4375 C15.04042969 18.23800781 14.51835938 19.03851562 13.98046875 19.86328125 C11.13380813 23.87354037 11.13380813 23.87354037 9.375 25.125 C6.89453125 24.98046875 6.89453125 24.98046875 4.1875 24.3125 C3.28644531 24.09980469 2.38539062 23.88710938 1.45703125 23.66796875 C0.76996094 23.48878906 0.08289063 23.30960938 -0.625 23.125 C-1.615 25.105 -2.605 27.085 -3.625 29.125 C-4.615 29.125 -5.605 29.125 -6.625 29.125 C-7.285 27.805 -7.945 26.485 -8.625 25.125 C-10.605 26.115 -10.605 26.115 -12.625 27.125 C-11.965 25.805 -11.305 24.485 -10.625 23.125 C-10.9859375 22.64289062 -11.346875 22.16078125 -11.71875 21.6640625 C-12.1828125 21.03242188 -12.646875 20.40078125 -13.125 19.75 C-13.5890625 19.12351562 -14.053125 18.49703125 -14.53125 17.8515625 C-15.625 16.125 -15.625 16.125 -15.625 14.125 C-16.09550781 14.56972656 -16.56601562 15.01445312 -17.05078125 15.47265625 C-17.98470703 16.32150391 -17.98470703 16.32150391 -18.9375 17.1875 C-19.55238281 17.75597656 -20.16726562 18.32445313 -20.80078125 18.91015625 C-21.40277344 19.31105469 -22.00476563 19.71195313 -22.625 20.125 C-23.615 19.795 -24.605 19.465 -25.625 19.125 C-24.55281799 18.11305294 -23.46673622 17.11581943 -22.375 16.125 C-21.77171875 15.568125 -21.1684375 15.01125 -20.546875 14.4375 C-18.625 13.125 -18.625 13.125 -14.625 13.125 C-14.625 12.465 -14.625 11.805 -14.625 11.125 C-11.655 10.465 -8.685 9.805 -5.625 9.125 C-5.66625 8.01125 -5.7075 6.8975 -5.75 5.75 C-5.57901299 0.79137666 -4.95862334 0.17098701 0 0 Z " fill="#EF92D8" transform="translate(47.625,7.875)"/>
<path d="M0 0 C1.670625 0.061875 1.670625 0.061875 3.375 0.125 C2.93325606 5.33757851 2.47930166 8.77897767 -0.625 13.125 C-1.615 14.61 -1.615 14.61 -2.625 16.125 C-2.625 15.135 -2.625 14.145 -2.625 13.125 C-3.615 13.62 -3.615 13.62 -4.625 14.125 C-5.03229228 16.44656597 -5.36938677 18.7818787 -5.625 21.125 C-7.875 21.5 -7.875 21.5 -10.625 21.125 C-13.65712341 17.51923163 -14.625 15.89553792 -14.625 11.125 C-13.84125 11.0425 -13.0575 10.96 -12.25 10.875 C-9.47750896 10.39693661 -9.47750896 10.39693661 -8.3125 8.0625 C-8.085625 7.423125 -7.85875 6.78375 -7.625 6.125 C-6.965 6.455 -6.305 6.785 -5.625 7.125 C-5.66625 6.34125 -5.7075 5.5575 -5.75 4.75 C-5.54283299 0.39949276 -4.19852887 0.14477686 0 0 Z " fill="#F5951F" transform="translate(73.625,50.875)"/>
<path d="M0 0 C3.81583379 0.65179251 6.02881405 1.46898975 9 4 C9.33 3.67 9.66 3.34 10 3 C16.28388747 2.41815857 16.28388747 2.41815857 19 4.625 C20.37517651 7.89104422 20.15787855 9.67109917 19 13 C16.5 14.25 16.5 14.25 14 15 C13.67 15.66 13.34 16.32 13 17 C13.50603992 14.83125748 13.99983813 13.00032373 15 11 C15.66 11 16.32 11 17 11 C17.042721 9.33388095 17.04063832 7.66617115 17 6 C15.96243008 4.7397935 15.96243008 4.7397935 13.6875 4.875 C11.05238529 4.89443168 11.05238529 4.89443168 8.8125 5.625 C8.214375 5.74875 7.61625 5.8725 7 6 C6.34 5.34 5.68 4.68 5 4 C4.67 4.66 4.34 5.32 4 6 C3.34 6 2.68 6 2 6 C1.67 7.65 1.34 9.3 1 11 C0.67 10.01 0.34 9.02 0 8 C-2.2477975 10.05233685 -3.0022242 11.00667261 -4 14 C-3.34 14.33 -2.68 14.66 -2 15 C-3.98 15 -5.96 15 -8 15 C-6.51194289 9.19657726 -3.40902445 4.82409121 0 0 Z " fill="#EA2C20" transform="translate(64,22)"/>
<path d="M0 0 C0.33 0.66 0.66 1.32 1 2 C0.67 2.66 0.34 3.32 0 4 C2.31 4 4.62 4 7 4 C8.32 6.97 9.64 9.94 11 13 C16.445 13.495 16.445 13.495 22 14 C22 11.69 22 9.38 22 7 C24.07324138 10.10986207 24.27392186 10.89108387 24.25 14.4375 C24.25515625 15.19933594 24.2603125 15.96117187 24.265625 16.74609375 C23.9747292 19.21443018 23.22975656 20.857686 22 23 C22 20.69 22 18.38 22 16 C16.39 16 10.78 16 5 16 C5.66 17.65 6.32 19.3 7 21 C5.62437146 19.71034824 4.29233607 18.37310707 3 17 C3 16.34 3 15.68 3 15 C4.98 14.67 6.96 14.34 9 14 C8.01 11.36 7.02 8.72 6 6 C3.36 6 0.72 6 -2 6 C-1.125 1.125 -1.125 1.125 0 0 Z " fill="#FAEBE5" transform="translate(56,33)"/>
<path d="M0 0 C0.99 0 1.98 0 3 0 C3.08304117 3.65381163 2.89694794 6.41220825 2 10 C7.61 10.33 13.22 10.66 19 11 C19.33 10.34 19.66 9.68 20 9 C20 9.99 20 10.98 20 12 C18.02 12 16.04 12 14 12 C14.99 15.3 15.98 18.6 17 22 C13.68987756 18.68987756 13.49648935 17.46840411 13 13 C9.04 13 5.08 13 1 13 C-0.50565735 9.98868529 0.37800045 7.35399684 0.84375 4.09375 C1.18422754 1.94134118 1.18422754 1.94134118 0 0 Z " fill="#EAEAF6" transform="translate(16,36)"/>
<path d="M0 0 C2.9630247 0.63493386 5.51579355 1.23701478 8 3 C9.06652192 5.30368736 10.06421005 7.64018187 11 10 C13.00543371 13.06540515 13.00543371 13.06540515 16 15 C10.82421875 18.22265625 10.82421875 18.22265625 9 19 C8.01 18.67 7.02 18.34 6 18 C7.32 17.67 8.64 17.34 10 17 C8.10566657 12.26416642 6.11786201 8.09219388 3 4 C2.01 3.67 1.02 3.34 0 3 C0 2.01 0 1.02 0 0 Z " fill="#EFF3EB" transform="translate(51,59)"/>
<path d="M0 0 C0.66 0.33 1.32 0.66 2 1 C2.12375 1.53625 2.2475 2.0725 2.375 2.625 C3.00062665 5.00238128 3.85614411 6.5392095 5.125 8.625 C5.74375 9.73875 6.3625 10.8525 7 12 C5.74458443 14.51083114 4.49936512 14.87125446 2 16 C2.66 14.68 3.32 13.36 4 12 C3.6390625 11.51789062 3.278125 11.03578125 2.90625 10.5390625 C2.4421875 9.90742188 1.978125 9.27578125 1.5 8.625 C1.0359375 7.99851562 0.571875 7.37203125 0.09375 6.7265625 C-1 5 -1 5 -1 3 C-1.47050781 3.44472656 -1.94101562 3.88945312 -2.42578125 4.34765625 C-3.35970703 5.19650391 -3.35970703 5.19650391 -4.3125 6.0625 C-4.92738281 6.63097656 -5.54226562 7.19945312 -6.17578125 7.78515625 C-6.77777344 8.18605469 -7.37976563 8.58695313 -8 9 C-8.99 8.67 -9.98 8.34 -11 8 C-9.92781799 6.98805294 -8.84173622 5.99081943 -7.75 5 C-7.14671875 4.443125 -6.5434375 3.88625 -5.921875 3.3125 C-4 2 -4 2 0 2 C0 1.34 0 0.68 0 0 Z " fill="#F3ECF8" transform="translate(33,19)"/>
<path d="M0 0 C0.763125 0.495 1.52625 0.99 2.3125 1.5 C5.71692151 3.40014224 7.63757385 3.02588758 11.5 2.75 C15 3 15 3 17 4.625 C18.37517651 7.89104422 18.15787855 9.67109917 17 13 C14.5 14.25 14.5 14.25 12 15 C11.67 15.66 11.34 16.32 11 17 C11.50603992 14.83125748 11.99983813 13.00032373 13 11 C13.66 11 14.32 11 15 11 C15.042721 9.33388095 15.04063832 7.66617115 15 6 C13.96243008 4.7397935 13.96243008 4.7397935 11.6875 4.875 C9.06423514 4.8590962 9.06423514 4.8590962 7 5.75 C5 6 5 6 2.25 4.1875 C1.5075 3.465625 0.765 2.74375 0 2 C0 1.34 0 0.68 0 0 Z " fill="#F3CECD" transform="translate(66,22)"/>
<path d="M0 0 C2 3 2 3 3 10 C-1.95 10 -6.9 10 -12 10 C-11.67 8.68 -11.34 7.36 -11 6 C-10.67 6.66 -10.34 7.32 -10 8 C-7.69 8 -5.38 8 -3 8 C-2.690625 6.865625 -2.38125 5.73125 -2.0625 4.5625 C-1 1 -1 1 0 0 Z " fill="#7036CE" transform="translate(29,36)"/>
<path d="M0 0 C2.67927341 4.01891012 2.15601248 6.24161923 2 11 C-1.63 11 -5.26 11 -9 11 C-9.66 9.02 -10.32 7.04 -11 5 C-10.34 5 -9.68 5 -9 5 C-9 6.32 -9 7.64 -9 9 C-8.071875 8.814375 -7.14375 8.62875 -6.1875 8.4375 C-3 8 -3 8 0 9 C0 6.03 0 3.06 0 0 Z " fill="#E03F33" transform="translate(76,36)"/>
<path d="M0 0 C1.98 0.66 3.96 1.32 6 2 C5.06692579 3.44037669 4.12834923 4.87718985 3.1875 6.3125 C2.66542969 7.11300781 2.14335938 7.91351563 1.60546875 8.73828125 C0.19610151 10.7237402 -1.22096657 12.3491852 -3 14 C-5.31 13.34 -7.62 12.68 -10 12 C-6.98968256 11.06576355 -6.13349732 10.95550089 -3 12 C-0.8325118 6.14472668 -0.8325118 6.14472668 0 0 Z " fill="#FAEFF2" transform="translate(60,19)"/>
<path d="M0 0 C2.97 0.495 2.97 0.495 6 1 C6.625 2.875 6.625 2.875 7 5 C6.34 5.66 5.68 6.32 5 7 C2.375 6.625 2.375 6.625 0 6 C-1.125 2.25 -1.125 2.25 0 0 Z " fill="#7239D0" transform="translate(30,28)"/>
<path d="M0 0 C-0.875 4.75 -0.875 4.75 -2 7 C-0.37536158 7.05395478 1.24978541 7.09277195 2.875 7.125 C3.77992187 7.14820312 4.68484375 7.17140625 5.6171875 7.1953125 C8.18806994 7.24324836 8.18806994 7.24324836 10 5 C9.67 6.32 9.34 7.64 9 9 C5.04 9 1.08 9 -3 9 C-3.33 8.01 -3.66 7.02 -4 6 C-2.5625 3.3125 -2.5625 3.3125 -1 1 C-3.31 1.33 -5.62 1.66 -8 2 C-4.77208445 -0.1519437 -3.71599191 -0.20086443 0 0 Z " fill="#EDF7F8" transform="translate(41,57)"/>
<path d="M0 0 C0.99 0.495 0.99 0.495 2 1 C2 2.65 2 4.3 2 6 C4.31 6.33 6.62 6.66 9 7 C9.33 8.98 9.66 10.96 10 13 C9.01 13.495 9.01 13.495 8 14 C8 12.68 8 11.36 8 10 C7.01 10.33 6.02 10.66 5 11 C4.34 10.34 3.68 9.68 3 9 C2.01 8.34 1.02 7.68 0 7 C-0.1875 3.375 -0.1875 3.375 0 0 Z " fill="#EC80CC" transform="translate(51,11)"/>
<path d="M0 0 C0.33 1.98 0.66 3.96 1 6 C0.01 6.495 0.01 6.495 -1 7 C-0.67 5.68 -0.34 4.36 0 3 C-0.99 2.67 -1.98 2.34 -3 2 C-3.4125 2.515625 -3.825 3.03125 -4.25 3.5625 C-4.8275 4.036875 -5.405 4.51125 -6 5 C-8.1875 4.6875 -8.1875 4.6875 -10 4 C-10 3.34 -10 2.68 -10 2 C-6.3558226 -0.4294516 -4.28758728 -0.16179575 0 0 Z " fill="#37BDEB" transform="translate(28,50)"/>
<path d="M0 0 C4.29 0 8.58 0 13 0 C12.67 0.99 12.34 1.98 12 3 C12 2.34 12 1.68 12 1 C8.53058454 1.45822468 5.32604951 1.89131683 2 3 C2 4.65 2 6.3 2 8 C1.34 7.34 0.68 6.68 0 6 C0 4.02 0 2.04 0 0 Z " fill="#83CEEA" transform="translate(16,49)"/>
<path d="M0 0 C0.66 0 1.32 0 2 0 C2 0.99 2 1.98 2 3 C2.66 3.33 3.32 3.66 4 4 C3.34 4 2.68 4 2 4 C2 4.99 2 5.98 2 7 C1.34 7 0.68 7 0 7 C0 7.66 0 8.32 0 9 C-1.65 9.33 -3.3 9.66 -5 10 C-5.33 9.34 -5.66 8.68 -6 8 C-4.35 8 -2.7 8 -1 8 C-1.020625 6.865625 -1.04125 5.73125 -1.0625 4.5625 C-1 1 -1 1 0 0 Z " fill="#F4B15F" transform="translate(69,64)"/>
<path d="M0 0 C2.375 -0.125 2.375 -0.125 5 0 C7 2 7 2 7.125 5.125 C7.08375 6.07375 7.0425 7.0225 7 8 C5 6.625 5 6.625 3 5 C3 4.34 3 3.68 3 3 C1.68 2.67 0.36 2.34 -1 2 C-0.67 1.34 -0.34 0.68 0 0 Z " fill="#E4322F" transform="translate(75,26)"/>
<path d="M0 0 C0.66 0.33 1.32 0.66 2 1 C0.66666667 4.33333333 -0.66666667 7.66666667 -2 11 C-4.475 10.01 -4.475 10.01 -7 9 C-6.21625 8.2575 -5.4325 7.515 -4.625 6.75 C-2.43495469 4.45566682 -1.17268614 2.87841142 0 0 Z " fill="#E8F5F5" transform="translate(36,65)"/>
<path d="M0 0 C4.95696581 1.23924145 7.11658466 2.78577758 10 7 C9.443125 6.690625 8.88625 6.38125 8.3125 6.0625 C4.47635837 4.29994844 1.21469594 4 -3 4 C-3 3.34 -3 2.68 -3 2 C-2.01 2 -1.02 2 0 2 C0 1.34 0 0.68 0 0 Z " fill="#8FD8ED" transform="translate(19,66)"/>
<path d="M0 0 C0.33 1.65 0.66 3.3 1 5 C-0.65 5 -2.3 5 -4 5 C-4 5.66 -4 6.32 -4 7 C-4.66 7 -5.32 7 -6 7 C-5.37162381 3.35541809 -4.14650034 0 0 0 Z " fill="#723AD0" transform="translate(32,22)"/>
<path d="M0 0 C0.33 0.66 0.66 1.32 1 2 C1.99 2 2.98 2 4 2 C4.33 1.34 4.66 0.68 5 0 C6.32 1.65 7.64 3.3 9 5 C6.36 5 3.72 5 1 5 C0.67 3.35 0.34 1.7 0 0 Z " fill="#66C19E" transform="translate(34,73)"/>
<path d="M0 0 C0.98120464 3.05263664 0.98120464 4.94736336 0 8 C0.66 8.33 1.32 8.66 2 9 C0.02 9 -1.96 9 -4 9 C-2.94124926 5.59687262 -1.99097846 2.98646769 0 0 Z " fill="#E23D36" transform="translate(60,28)"/>
<path d="M0 0 C1.875 0.1875 1.875 0.1875 4 1 C5.25 3.5625 5.25 3.5625 6 6 C4.02 5.01 2.04 4.02 0 3 C0 2.01 0 1.02 0 0 Z M6 3 C6.66 3 7.32 3 8 3 C7.67 3.99 7.34 4.98 7 6 C6.67 5.01 6.34 4.02 6 3 Z " fill="#C2DFCE" transform="translate(51,59)"/>
<path d="M0 0 C0.33 0.66 0.66 1.32 1 2 C0.67 2.66 0.34 3.32 0 4 C2.31 4 4.62 4 7 4 C7.33 4.66 7.66 5.32 8 6 C4.7 6 1.4 6 -2 6 C-1.125 1.125 -1.125 1.125 0 0 Z " fill="#F5DFDD" transform="translate(56,33)"/>
<path d="M0 0 C1.32 0.33 2.64 0.66 4 1 C3.01 1.33 2.02 1.66 1 2 C-0.70855022 5.00007271 -0.70855022 5.00007271 -2 8 C-2.99 8 -3.98 8 -5 8 C-5.33 6.68 -5.66 5.36 -6 4 C-4.68 4.33 -3.36 4.66 -2 5 C-1.34 3.35 -0.68 1.7 0 0 Z " fill="#F7DFF1" transform="translate(46,29)"/>
<path d="M0 0 C0.33 0.66 0.66 1.32 1 2 C0.67 2.66 0.34 3.32 0 4 C1.65 3.67 3.3 3.34 5 3 C5 3.99 5 4.98 5 6 C3.125 6.625 3.125 6.625 1 7 C0.34 6.34 -0.32 5.68 -1 5 C-0.625 2.375 -0.625 2.375 0 0 Z " fill="#45BCE0" transform="translate(14,62)"/>
<path d="M0 0 C-1.07401108 2.91517292 -1.77810176 4.77810176 -4 7 C-4.66 5.02 -5.32 3.04 -6 1 C-3.92446352 0.4465236 -2.15634036 0 0 0 Z " fill="#49C0E0" transform="translate(40,58)"/>
<path d="M0 0 C0.66 0.33 1.32 0.66 2 1 C1.67 2.98 1.34 4.96 1 7 C-0.65 7.33 -2.3 7.66 -4 8 C-2.68 5.36 -1.36 2.72 0 0 Z " fill="#F3C893" transform="translate(63,54)"/>
<path d="M0 0 C0.66 0.33 1.32 0.66 2 1 C1.34 2.32 0.68 3.64 0 5 C-2.31 4.67 -4.62 4.34 -7 4 C-4 2 -4 2 0 2 C0 1.34 0 0.68 0 0 Z " fill="#EA84CD" transform="translate(57,26)"/>
<path d="M0 0 C0.66 0 1.32 0 2 0 C2 0.66 2 1.32 2 2 C2.66 2.33 3.32 2.66 4 3 C2.68 3 1.36 3 0 3 C-0.33 3.99 -0.66 4.98 -1 6 C-1.66 6 -2.32 6 -3 6 C-1.125 1.125 -1.125 1.125 0 0 Z " fill="#E0403A" transform="translate(64,22)"/>
</svg>
